<?xml version="1.0" encoding="UTF-8"?>
<!DOCTYPE svg PUBLIC "-//W3C//DTD SVG 1.1//EN" "http://www.w3.org/Graphics/SVG/1.1/DTD/svg11.dtd">
<!-- Creator: CorelDRAW -->
<svg xmlns="http://www.w3.org/2000/svg" xml:space="preserve" width="512px" height="512px" version="1.1" style="shape-rendering:geometricPrecision; text-rendering:geometricPrecision; image-rendering:optimizeQuality; fill-rule:evenodd; clip-rule:evenodd"
viewBox="0 0 512 512"
 xmlns:xlink="http://www.w3.org/1999/xlink">
 <defs>
  <style type="text/css">
   <![CDATA[
    .fil2 {fill:#00CCFF}
    .fil0 {fill:#1B74B9}
    .fil1 {fill:white}
   ]]>
  </style>
 </defs>
 <g id="Layer_x0020_1">
  <metadata id="CorelCorpID_0Corel-Layer"/>
  <path class="fil0" d="M396 402l-257 0 0 29 294 0 0 -372 -30 0 0 336c0,4 -3,7 -7,7zm-36 -340l-236 0c-10,0 -10,-15 0,-15l237 0c10,0 9,15 -1,15zm0 59l-236 0c-10,0 -10,-15 0,-15l237 0c10,0 9,15 -1,15zm0 59l-236 0c-10,0 -10,-15 0,-15l237 0c10,0 9,15 -1,15zm0 58l-236 0c-10,0 -10,-15 0,-15l237 0c10,0 9,15 -1,15zm0 59l-236 0c-10,0 -10,-15 0,-15l237 0c10,0 9,15 -1,15zm0 59l-236 0c-10,0 -10,-15 0,-15l237 0c10,0 9,15 -1,15zm-242 -211c-2,0 -4,-1 -5,-2l-18 -18 0 263 293 0 0 -373 -293 0 0 89 29 28c4,5 1,13 -6,13zm-38 -35l-23 -23c-23,17 -57,1 -57,-30 0,-20 16,-36 36,-36 29,0 46,31 31,55l13 13 0 -81c0,-4 4,-7 8,-7l308 0c4,0 7,3 7,7l0 36 37 0c4,0 7,3 7,8l0 25c38,0 33,-5 33,32l25 0c4,0 7,3 7,8l0 387c0,4 -3,7 -7,7l-309 0c-4,0 -7,-3 -7,-7l0 -26c-38,0 -33,5 -33,-32l-25 0c-4,0 -7,-4 -7,-8l0 -36 -36 0c-4,0 -8,-3 -8,-7l0 -285zm-44 -75c-12,0 -22,10 -22,22 0,12 10,22 22,22 13,0 22,-10 22,-22 0,-12 -9,-22 -22,-22zm168 443l0 19 294 0 0 -373 -18 0 0 347c-1,4 -4,7 -8,7l-268 0zm261 -359l0 -27 -18 0 0 347c0,3 -3,7 -7,7l-269 0 0 18 294 0 0 -345z"/>
  <path class="fil1" d="M403 59l0 336c0,4 -3,7 -7,7l-257 0 0 29 294 0 0 -372 -30 0z"/>
  <path class="fil2" d="M447 92l0 347c0,3 -3,7 -7,7l-269 0 0 18 294 0 0 -345 0 -27 -18 0z"/>
  <path class="fil1" d="M480 124l0 347c-1,4 -4,7 -8,7l-268 0 0 19 294 0 0 -373 -18 0z"/>
  <path class="fil2" d="M388 388l0 -373 -293 0 0 89 29 28c4,5 1,13 -6,13 -2,0 -4,-1 -5,-2l-18 -18 0 263 293 0zm-28 -267l-236 0c-10,0 -10,-15 0,-15l237 0c10,0 9,15 -1,15zm0 -59l-236 0c-10,0 -10,-15 0,-15l237 0c10,0 9,15 -1,15zm-236 103l237 0c10,0 9,15 -1,15l-236 0c-10,0 -10,-15 0,-15zm0 58l237 0c10,0 9,15 -1,15l-236 0c-10,0 -10,-15 0,-15zm0 59l237 0c10,0 9,15 -1,15l-236 0c-10,0 -10,-15 0,-15zm0 59l237 0c10,0 9,15 -1,15l-236 0c-10,0 -10,-15 0,-15z"/>
  <path class="fil2" d="M36 79c13,0 22,-10 22,-22 0,-12 -9,-22 -22,-22 -12,0 -22,10 -22,22 0,12 10,22 22,22z"/>
 </g>
</svg>
